# Blender v2.91.2 OBJ File: 'salon test.blend'
# www.blender.org
mtllib fireplace.mtl
o Cube.003_Cube.004
v -1.000000 0.000000 2.975046
v -1.000000 2.000000 2.975046
v -1.000000 0.000000 1.975046
v -1.000000 2.000000 1.975046
v 1.000000 0.000000 2.975046
v 1.000000 2.000000 2.975046
v 1.000000 0.000000 1.975046
v 1.000000 2.000000 1.975046
v -1.000000 1.000000 2.975046
v -1.000000 1.000000 1.975046
v 1.000000 1.000000 1.975046
v 1.000000 1.000000 2.975046
v 0.579876 0.000000 2.924582
v 0.579876 2.000000 1.975046
v 0.579876 0.000000 2.975046
v 0.579876 2.000000 2.975046
v 0.579876 1.000000 2.975046
v 0.579876 1.000000 2.924582
v -0.540318 0.000000 2.924582
v -0.540318 2.000000 2.975046
v -0.540318 1.000000 2.975046
v -0.540318 2.000000 1.975046
v -0.540318 0.000000 2.975046
v -0.540318 1.000000 2.924582
v -1.000000 1.553784 2.975046
v -1.000000 1.553784 1.975046
v 1.000000 1.553784 1.975046
v 1.000000 1.553784 2.975046
v 0.579876 1.553784 2.975046
v 0.579876 1.553784 2.924582
v -0.540318 1.553784 2.924582
v -0.540318 1.553784 2.975046
v -1.000000 0.000000 2.650093
v 1.000000 0.000000 2.650093
v 0.579876 2.000000 2.650093
v -0.540318 2.000000 2.650093
v 1.000000 0.000000 2.312570
v -1.000000 0.000000 2.312570
v 0.579876 3.005116 2.650093
v 0.579876 3.005116 2.975046
v -0.540318 3.005116 2.975046
v -0.540318 3.005116 2.650093
v 1.151652 1.000000 1.975046
v 1.151652 0.000000 1.975046
v 1.151652 0.000000 2.312570
v 1.151652 2.000000 2.650093
v 1.151652 2.000000 2.975046
v 1.151652 1.000000 2.975046
v 1.151652 0.000000 2.975046
v 1.151652 1.553784 1.975046
v 1.151652 1.553784 2.975046
v 1.151652 2.000000 1.975046
v 1.151652 0.000000 2.650093
v 1.151652 2.000000 2.312570
v -1.144245 0.000000 2.650093
v -1.144245 0.000000 2.975046
v -1.144245 1.553784 2.975046
v -1.144245 2.000000 2.975046
v -1.144245 2.000000 2.312570
v -1.144245 2.000000 1.975046
v -1.144245 1.000000 1.975046
v -1.144245 0.000000 1.975046
v -1.144245 1.000000 2.975046
v -1.144245 1.553784 1.975046
v -1.144245 0.000000 2.312570
v -1.144245 2.000000 2.650093
v 0.579876 2.141555 1.975046
v 1.000000 2.141555 1.975046
v -0.540318 2.141555 2.975046
v -1.000000 2.141555 2.975046
v -0.540318 2.141555 1.975046
v 1.000000 2.141555 2.975046
v 0.579876 2.141555 2.975046
v 0.579876 2.141555 2.650093
v -1.000000 2.141555 1.975046
v -0.540318 2.141555 2.650093
v 1.151652 2.141555 2.650093
v 1.151652 2.141555 2.975046
v 1.151652 2.141555 2.312570
v 1.151652 2.141555 1.975046
v -1.144245 2.141555 2.312570
v -1.144245 2.141555 1.975046
v -1.144245 2.141555 2.975046
v -1.144245 2.141555 2.650093
v -0.540318 2.112129 2.027740
v 0.579876 2.112129 2.027740
v 0.579876 1.665913 2.977275
v -0.540318 1.665913 2.977275
vt 0.625000 0.447484
vt 0.569223 0.500000
vt 0.569223 0.447484
vt 0.625000 0.942540
vt 0.569223 1.000000
vt 0.569223 0.942540
vt 0.500000 0.942540
vt 0.375000 1.000000
vt 0.375000 0.942540
vt 0.500000 0.447484
vt 0.375000 0.500000
vt 0.375000 0.447484
vt 0.500000 0.750000
vt 0.375000 0.802516
vt 0.375000 0.750000
vt 0.625000 0.750000
vt 0.569223 0.802516
vt 0.569223 0.750000
vt 0.625000 0.447484
vt 0.569223 0.250000
vt 0.625000 0.307460
vt 0.569223 0.307460
vt 0.500000 0.250000
vt 0.375000 0.307460
vt 0.375000 0.250000
vt 0.500000 0.802516
vt 0.625000 0.802516
vt 0.625000 0.942540
vt 0.500000 0.307460
vt 0.500000 1.000000
vt 0.500000 0.500000
vt 0.817540 0.668762
vt 0.677516 0.750000
vt 0.677516 0.668762
vt 0.677516 0.668762
vt 0.677516 0.750000
vt 0.817540 0.668762
vt 0.817540 0.750000
vt 0.375000 0.584381
vt 0.500000 0.500000
vt 0.500000 0.750000
vt 0.000000 0.000000
vt 0.000000 0.000000
vt 0.000000 0.000000
vt 0.625000 0.500000
vt 0.569223 0.500000
vt 0.569223 0.750000
vt 0.000000 0.000000
vt 0.000000 0.000000
vt 0.625000 0.750000
vt 0.375000 0.500000
vt 0.000000 0.000000
vt 0.000000 0.000000
vt 0.000000 0.000000
vt 0.000000 0.000000
vt 0.000000 0.000000
vt 0.500000 0.250000
vt 0.375000 0.165619
vt 0.500000 0.000000
vt 0.625000 1.000000
vt 0.569223 1.000000
vt 0.500000 1.000000
vt 0.375000 1.000000
vt 0.000000 0.000000
vt 0.000000 0.000000
vt 0.625000 0.250000
vt 0.625000 0.250000
vt 0.000000 0.000000
vt 0.000000 0.000000
vt 0.569223 0.250000
vt 0.625000 0.250000
vt 0.677516 0.668762
vt 0.625000 0.584381
vt 0.677516 0.500000
vt 0.625000 0.500000
vt 0.625000 0.584381
vt 0.817540 0.668762
vt 0.625000 1.000000
vt 0.625000 0.447484
vt 0.625000 1.000000
vt 0.625000 1.000000
vt 0.625000 0.500000
vt 0.625000 0.802516
vt 0.817540 0.750000
vt 0.625000 0.750000
vt 0.625000 0.000000
vt 0.625000 0.081238
vt 0.625000 0.081238
vt 0.625000 0.668762
vt 0.625000 0.668762
vt 0.625000 0.165619
vt 0.625000 0.250000
vt 0.625000 0.307460
vt 0.625000 0.750000
vt 0.625000 0.500000
vt 0.625000 0.165619
vt 0.625000 0.307460
vt 0.569223 0.447484
vt 0.569223 0.307460
vt 0.625000 0.802516
vt 0.817540 0.750000
vt 0.375000 0.750000
vt 0.375000 0.668762
vt 0.000000 0.000000
vt 0.000000 0.000000
vt 0.375000 0.250000
vt 0.569223 0.000000
vt 0.375000 0.081238
vt 0.375000 0.000000
vt 0.875000 0.750000
vt 0.875000 0.750000
vt 0.875000 0.668762
vt 0.875000 0.500000
vt 0.875000 0.584381
vt 0.875000 0.500000
vt 0.677516 0.750000
vt 0.817540 0.500000
vt 0.625000 0.942540
vt 0.625000 0.000000
vn -0.6930 -0.6525 -0.3066
vn 0.0000 0.0000 1.0000
vn -0.9145 0.0000 -0.4046
vn -1.0000 -0.0000 0.0000
vn 0.6600 -0.6799 -0.3195
vn 0.9001 0.0000 -0.4357
vn 0.0000 0.0000 -1.0000
vn 0.0000 1.0000 0.0000
vn 1.0000 0.0000 0.0000
vn 0.0000 -1.0000 0.0000
vn 0.0000 -0.9050 -0.4253
vn 0.0000 0.4253 -0.9050
vn 0.0000 -0.4253 0.9050
usemtl Material.005
s off
f 14/1/1 27/2/1 30/3/1
f 20/4/2 25/5/2 32/6/2
f 21/7/2 1/8/2 23/9/2
f 18/10/3 7/11/3 13/12/3
f 12/13/2 15/14/2 5/15/2
f 6/16/2 29/17/2 28/18/2
f 30/3/4 86/19/4 14/1/4
f 26/20/5 22/21/5 31/22/5
f 10/23/6 19/24/6 3/25/6
f 17/26/2 23/9/2 15/14/2
f 16/27/2 41/28/2 20/4/2
f 16/27/2 32/6/2 29/17/2
f 29/17/2 21/7/2 17/26/2
f 26/20/6 24/29/6 10/23/6
f 28/18/2 17/26/2 12/13/2
f 32/6/2 9/30/2 21/7/2
f 30/3/3 11/31/3 18/10/3
f 24/29/7 30/3/7 18/10/7
f 42/32/8 40/33/8 39/34/8
f 35/35/9 40/33/9 16/36/9
f 36/37/7 39/34/7 35/35/7
f 20/38/4 42/32/4 36/37/4
f 45/39/9 43/40/9 48/41/9
f 7/42/10 45/43/10 37/44/10
f 27/2/7 43/40/7 11/31/7
f 8/45/7 50/46/7 27/2/7
f 12/13/2 51/47/2 28/18/2
f 37/44/10 53/48/10 34/49/10
f 28/18/2 47/50/2 6/16/2
f 5/15/2 48/41/2 12/13/2
f 11/31/7 44/51/7 7/11/7
f 34/49/10 49/52/10 5/53/10
f 1/54/10 55/55/10 33/56/10
f 61/57/4 65/58/4 63/59/4
f 2/60/2 57/61/2 25/5/2
f 25/5/2 63/62/2 9/30/2
f 9/30/2 56/63/2 1/8/2
f 33/56/10 65/64/10 38/65/10
f 26/20/7 60/66/7 4/67/7
f 38/65/10 62/68/10 3/69/10
f 10/23/7 64/70/7 26/20/7
f 3/25/7 61/57/7 10/23/7
f 60/66/7 75/71/7 4/67/7
f 74/72/8 79/73/8 67/74/8
f 16/36/4 74/72/4 35/35/4
f 52/75/9 79/73/9 54/76/9
f 35/35/2 76/77/2 36/37/2
f 20/4/2 70/78/2 2/60/2
f 22/21/7 67/79/7 14/1/7
f 2/60/2 83/80/2 58/81/2
f 14/1/7 68/82/7 8/45/7
f 6/16/2 73/83/2 16/27/2
f 36/37/9 69/84/9 20/38/9
f 47/50/2 72/85/2 6/16/2
f 58/86/4 84/87/4 66/88/4
f 54/76/9 77/89/9 46/90/9
f 59/91/4 82/92/4 60/66/4
f 4/67/7 71/93/7 22/21/7
f 46/90/9 78/94/9 47/50/9
f 8/45/7 80/95/7 52/75/7
f 66/88/4 81/96/4 59/91/4
f 85/97/11 87/98/11 88/99/11
f 31/22/12 87/98/12 30/3/12
f 31/22/9 85/97/9 88/99/9
f 14/1/13 85/97/13 22/21/13
f 14/1/7 8/45/7 27/2/7
f 20/4/2 2/60/2 25/5/2
f 21/7/2 9/30/2 1/8/2
f 18/10/3 11/31/3 7/11/3
f 12/13/2 17/26/2 15/14/2
f 6/16/2 16/27/2 29/17/2
f 30/3/4 87/98/4 86/19/4
f 26/20/7 4/67/7 22/21/7
f 10/23/6 24/29/6 19/24/6
f 17/26/2 21/7/2 23/9/2
f 16/27/2 40/100/2 41/28/2
f 16/27/2 20/4/2 32/6/2
f 29/17/2 32/6/2 21/7/2
f 26/20/6 31/22/6 24/29/6
f 28/18/2 29/17/2 17/26/2
f 32/6/2 25/5/2 9/30/2
f 30/3/3 27/2/3 11/31/3
f 13/12/7 19/24/7 24/29/7
f 24/29/7 31/22/7 30/3/7
f 18/10/7 13/12/7 24/29/7
f 42/32/8 41/101/8 40/33/8
f 35/35/9 39/34/9 40/33/9
f 36/37/7 42/32/7 39/34/7
f 20/38/4 41/101/4 42/32/4
f 54/76/9 46/90/9 48/41/9
f 46/90/9 47/50/9 51/47/9
f 51/47/9 48/41/9 46/90/9
f 48/41/9 49/102/9 53/103/9
f 54/76/9 48/41/9 43/40/9
f 50/46/9 52/75/9 54/76/9
f 45/39/9 44/51/9 43/40/9
f 43/40/9 50/46/9 54/76/9
f 53/103/9 45/39/9 48/41/9
f 7/42/10 44/104/10 45/43/10
f 27/2/7 50/46/7 43/40/7
f 8/45/7 52/75/7 50/46/7
f 12/13/2 48/41/2 51/47/2
f 37/44/10 45/43/10 53/48/10
f 28/18/2 51/47/2 47/50/2
f 5/15/2 49/102/2 48/41/2
f 11/31/7 43/40/7 44/51/7
f 34/49/10 53/48/10 49/52/10
f 1/54/10 56/105/10 55/55/10
f 66/88/4 59/91/4 63/59/4
f 59/91/4 60/66/4 64/70/4
f 64/70/4 61/57/4 59/91/4
f 61/57/4 62/106/4 65/58/4
f 57/107/4 58/86/4 66/88/4
f 55/108/4 56/109/4 63/59/4
f 63/59/4 57/107/4 66/88/4
f 59/91/4 61/57/4 63/59/4
f 65/58/4 55/108/4 63/59/4
f 2/60/2 58/81/2 57/61/2
f 25/5/2 57/61/2 63/62/2
f 9/30/2 63/62/2 56/63/2
f 33/56/10 55/55/10 65/64/10
f 26/20/7 64/70/7 60/66/7
f 38/65/10 65/64/10 62/68/10
f 10/23/7 61/57/7 64/70/7
f 3/25/7 62/106/7 61/57/7
f 60/66/7 82/92/7 75/71/7
f 83/110/8 70/111/8 84/112/8
f 70/111/8 69/84/8 76/77/8
f 70/111/8 76/77/8 84/112/8
f 82/113/8 81/114/8 75/115/8
f 81/114/8 84/112/8 76/77/8
f 74/72/8 73/116/8 72/85/8
f 81/114/8 76/77/8 71/117/8
f 75/115/8 81/114/8 71/117/8
f 74/72/8 72/85/8 77/89/8
f 72/85/8 78/94/8 77/89/8
f 76/77/8 74/72/8 71/117/8
f 67/74/8 71/117/8 74/72/8
f 79/73/8 80/95/8 68/82/8
f 74/72/8 77/89/8 79/73/8
f 79/73/8 68/82/8 67/74/8
f 16/36/4 73/116/4 74/72/4
f 52/75/9 80/95/9 79/73/9
f 35/35/2 74/72/2 76/77/2
f 20/4/2 69/118/2 70/78/2
f 22/21/7 71/93/7 67/79/7
f 2/60/2 70/78/2 83/80/2
f 14/1/7 67/79/7 68/82/7
f 6/16/2 72/85/2 73/83/2
f 36/37/9 76/77/9 69/84/9
f 47/50/2 78/94/2 72/85/2
f 58/86/4 83/119/4 84/87/4
f 54/76/9 79/73/9 77/89/9
f 59/91/4 81/96/4 82/92/4
f 4/67/7 75/71/7 71/93/7
f 46/90/9 77/89/9 78/94/9
f 8/45/7 68/82/7 80/95/7
f 66/88/4 84/87/4 81/96/4
f 85/97/11 86/19/11 87/98/11
f 31/22/12 88/99/12 87/98/12
f 31/22/9 22/21/9 85/97/9
f 14/1/13 86/19/13 85/97/13
