# Blender v2.91.2 OBJ File: 'salon test.blend'
# www.blender.org
mtllib lampe_plafond.mtl
o Cylinder_Cylinder.006
v 0.000000 2.997190 -0.100000
v 0.019509 2.997190 -0.098079
v 0.038268 2.997190 -0.092388
v 0.055557 2.997190 -0.083147
v 0.070711 2.997190 -0.070711
v 0.083147 2.997190 -0.055557
v 0.092388 2.997190 -0.038268
v 0.098079 2.997190 -0.019509
v 0.100000 2.997190 -0.000000
v 0.098079 2.997190 0.019509
v 0.092388 2.997190 0.038268
v 0.083147 2.997190 0.055557
v 0.070711 2.997190 0.070711
v 0.055557 2.997190 0.083147
v 0.038268 2.997190 0.092388
v 0.019509 2.997190 0.098079
v -0.000000 2.997190 0.100000
v -0.019509 2.997190 0.098079
v -0.038268 2.997190 0.092388
v -0.055557 2.997190 0.083147
v -0.070711 2.997190 0.070711
v -0.083147 2.997190 0.055557
v -0.092388 2.997190 0.038268
v -0.098079 2.997190 0.019509
v -0.100000 2.997190 -0.000000
v -0.098079 2.997190 -0.019509
v -0.092388 2.997190 -0.038268
v -0.083147 2.997190 -0.055557
v -0.070711 2.997190 -0.070711
v -0.055557 2.997190 -0.083147
v -0.038268 2.997190 -0.092388
v -0.019509 2.997190 -0.098079
v 0.000000 2.863558 -0.100000
v 0.019509 2.863558 -0.098079
v 0.038268 2.863558 -0.092388
v 0.055557 2.863558 -0.083147
v 0.070711 2.863558 -0.070711
v 0.083147 2.863558 -0.055557
v 0.092388 2.863558 -0.038268
v 0.098079 2.863558 -0.019509
v 0.100000 2.863558 -0.000000
v 0.098079 2.863558 0.019509
v 0.092388 2.863558 0.038268
v 0.083147 2.863558 0.055557
v 0.070711 2.863558 0.070711
v 0.055557 2.863558 0.083147
v 0.038268 2.863558 0.092388
v 0.019509 2.863558 0.098079
v -0.000000 2.863558 0.100000
v -0.019509 2.863558 0.098079
v -0.038268 2.863558 0.092388
v -0.055557 2.863558 0.083147
v -0.070711 2.863558 0.070711
v -0.083147 2.863558 0.055557
v -0.092388 2.863558 0.038268
v -0.098079 2.863558 0.019509
v -0.100000 2.863558 -0.000000
v -0.098079 2.863558 -0.019509
v -0.092388 2.863558 -0.038268
v -0.083147 2.863558 -0.055557
v -0.070711 2.863558 -0.070711
v -0.055557 2.863558 -0.083147
v -0.038268 2.863558 -0.092388
v -0.019509 2.863558 -0.098079
v -0.000000 2.797190 -0.059064
v 0.000000 2.837929 -0.100000
v 0.011523 2.797190 -0.057929
v 0.019509 2.837929 -0.098079
v 0.022603 2.797190 -0.054568
v 0.038268 2.837929 -0.092388
v 0.032814 2.797190 -0.049110
v 0.055557 2.837929 -0.083147
v 0.041764 2.797190 -0.041764
v 0.070711 2.837929 -0.070711
v 0.049110 2.797190 -0.032814
v 0.083147 2.837929 -0.055557
v 0.054568 2.797190 -0.022603
v 0.092388 2.837929 -0.038268
v 0.057929 2.797190 -0.011523
v 0.098079 2.837929 -0.019509
v 0.059064 2.797190 0.000000
v 0.100000 2.837929 -0.000000
v 0.057929 2.797190 0.011523
v 0.098079 2.837929 0.019509
v 0.054568 2.797190 0.022603
v 0.092388 2.837929 0.038268
v 0.049110 2.797190 0.032814
v 0.083147 2.837929 0.055557
v 0.041764 2.797190 0.041764
v 0.070711 2.837929 0.070711
v 0.032814 2.797190 0.049110
v 0.055557 2.837929 0.083147
v 0.022603 2.797190 0.054568
v 0.038268 2.837929 0.092388
v 0.011523 2.797190 0.057929
v 0.019509 2.837929 0.098079
v -0.000000 2.797190 0.059064
v -0.000000 2.837929 0.100000
v -0.011523 2.797190 0.057929
v -0.019509 2.837929 0.098079
v -0.022603 2.797190 0.054568
v -0.038268 2.837929 0.092388
v -0.032814 2.797190 0.049110
v -0.055557 2.837929 0.083147
v -0.041764 2.797190 0.041764
v -0.070711 2.837929 0.070711
v -0.049110 2.797190 0.032814
v -0.083147 2.837929 0.055557
v -0.054568 2.797190 0.022603
v -0.092388 2.837929 0.038268
v -0.057929 2.797190 0.011523
v -0.098079 2.837929 0.019509
v -0.059064 2.797190 -0.000000
v -0.100000 2.837929 -0.000000
v -0.057929 2.797190 -0.011523
v -0.098079 2.837929 -0.019509
v -0.054568 2.797190 -0.022603
v -0.092388 2.837929 -0.038268
v -0.049110 2.797190 -0.032814
v -0.083147 2.837929 -0.055557
v -0.041764 2.797190 -0.041764
v -0.070711 2.837929 -0.070711
v -0.032814 2.797190 -0.049110
v -0.055557 2.837929 -0.083147
v -0.022603 2.797190 -0.054568
v -0.038268 2.837929 -0.092388
v -0.011523 2.797190 -0.057929
v -0.019509 2.837929 -0.098079
v 0.011523 2.866693 -0.057929
v -0.000000 2.866693 -0.059064
v 0.022603 2.866693 -0.054568
v 0.032814 2.866693 -0.049110
v 0.041764 2.866693 -0.041764
v 0.049110 2.866693 -0.032814
v 0.054568 2.866693 -0.022603
v 0.057929 2.866693 -0.011523
v 0.059064 2.866693 0.000000
v 0.057929 2.866693 0.011523
v 0.054568 2.866693 0.022603
v 0.049110 2.866693 0.032814
v 0.041764 2.866693 0.041764
v 0.032814 2.866693 0.049110
v 0.022603 2.866693 0.054568
v 0.011523 2.866693 0.057929
v -0.000000 2.866693 0.059064
v -0.011523 2.866693 0.057929
v -0.022603 2.866693 0.054568
v -0.032814 2.866693 0.049110
v -0.041764 2.866693 0.041764
v -0.049110 2.866693 0.032814
v -0.054568 2.866693 0.022603
v -0.057929 2.866693 0.011523
v -0.059064 2.866693 -0.000000
v -0.057929 2.866693 -0.011523
v -0.054568 2.866693 -0.022603
v -0.049110 2.866693 -0.032814
v -0.041764 2.866693 -0.041764
v -0.032814 2.866693 -0.049110
v -0.022603 2.866693 -0.054568
v -0.011523 2.866693 -0.057929
vt 1.000000 1.000000
vt 0.968750 0.665920
vt 1.000000 0.665920
vt 0.968750 1.000000
vt 0.937500 0.665920
vt 0.937500 1.000000
vt 0.906250 0.665920
vt 0.906250 1.000000
vt 0.875000 0.665920
vt 0.875000 1.000000
vt 0.843750 0.665920
vt 0.843750 1.000000
vt 0.812500 0.665920
vt 0.812500 1.000000
vt 0.781250 0.665920
vt 0.781250 1.000000
vt 0.750000 0.665920
vt 0.750000 1.000000
vt 0.718750 0.665920
vt 0.718750 1.000000
vt 0.687500 0.665920
vt 0.687500 1.000000
vt 0.656250 0.665920
vt 0.656250 1.000000
vt 0.625000 0.665920
vt 0.625000 1.000000
vt 0.593750 0.665920
vt 0.593750 1.000000
vt 0.562500 0.665920
vt 0.562500 1.000000
vt 0.531250 0.665920
vt 0.531250 1.000000
vt 0.500000 0.665920
vt 0.500000 1.000000
vt 0.468750 0.665920
vt 0.468750 1.000000
vt 0.437500 0.665920
vt 0.437500 1.000000
vt 0.406250 0.665920
vt 0.406250 1.000000
vt 0.375000 0.665920
vt 0.375000 1.000000
vt 0.343750 0.665920
vt 0.343750 1.000000
vt 0.312500 0.665920
vt 0.312500 1.000000
vt 0.281250 0.665920
vt 0.281250 1.000000
vt 0.250000 0.665920
vt 0.250000 1.000000
vt 0.218750 0.665920
vt 0.218750 1.000000
vt 0.187500 0.665920
vt 0.187500 1.000000
vt 0.156250 0.665920
vt 0.156250 1.000000
vt 0.125000 0.665920
vt 0.125000 1.000000
vt 0.093750 0.665920
vt 0.093750 1.000000
vt 0.062500 0.665920
vt 0.028269 0.341844
vt 0.158156 0.028269
vt 0.471731 0.158156
vt 0.062500 1.000000
vt 0.031250 0.665920
vt 0.031250 1.000000
vt 0.000000 0.665920
vt 0.000000 0.601848
vt 0.031250 0.601848
vt 0.937500 0.601848
vt 0.968750 0.601848
vt 0.062500 0.601848
vt 0.093750 0.601848
vt 0.125000 0.601848
vt 0.156250 0.601848
vt 0.187500 0.601848
vt 0.218750 0.601848
vt 0.250000 0.601848
vt 0.281250 0.601848
vt 0.312500 0.601848
vt 0.343750 0.601848
vt 0.375000 0.601848
vt 0.406250 0.601848
vt 0.437500 0.601848
vt 0.468750 0.601848
vt 0.500000 0.601848
vt 0.531250 0.601848
vt 0.562500 0.601848
vt 0.593750 0.601848
vt 0.625000 0.601848
vt 0.656250 0.601848
vt 0.687500 0.601848
vt 0.718750 0.601848
vt 0.750000 0.601848
vt 0.781250 0.601848
vt 0.812500 0.601848
vt 0.843750 0.601848
vt 0.875000 0.601848
vt 0.906250 0.601848
vt 0.725146 0.500000
vt 0.743604 0.500000
vt 0.743604 0.500000
vt 1.000000 0.601848
vt 0.975146 0.500000
vt 0.993604 0.500000
vt 0.962354 0.500000
vt 0.931104 0.500000
vt 0.899854 0.500000
vt 0.868604 0.500000
vt 0.837354 0.500000
vt 0.806104 0.500000
vt 0.774854 0.500000
vt 0.712354 0.500000
vt 0.662646 0.500000
vt 0.681104 0.500000
vt 0.649854 0.500000
vt 0.618604 0.500000
vt 0.587354 0.500000
vt 0.556104 0.500000
vt 0.506396 0.500000
vt 0.524854 0.500000
vt 0.475146 0.500000
vt 0.493604 0.500000
vt 0.462354 0.500000
vt 0.431104 0.500000
vt 0.399854 0.500000
vt 0.368604 0.500000
vt 0.318896 0.500000
vt 0.337354 0.500000
vt 0.287646 0.500000
vt 0.306104 0.500000
vt 0.256396 0.500000
vt 0.274854 0.500000
vt 0.243604 0.500000
vt 0.212354 0.500000
vt 0.162646 0.500000
vt 0.181104 0.500000
vt 0.149854 0.500000
vt 0.118604 0.500000
vt 0.087354 0.500000
vt 0.056104 0.500000
vt 0.006396 0.500000
vt 0.024854 0.500000
vt 0.777655 0.110971
vt 0.610971 0.222345
vt 0.722346 0.389029
vt 0.443896 0.500000
vt 0.462354 0.500000
vt 0.162646 0.500000
vt 0.181104 0.500000
vt 0.024854 0.500000
vt 0.850146 0.500000
vt 0.868604 0.500000
vt 0.568896 0.500000
vt 0.587354 0.500000
vt 0.306104 0.500000
vt 0.993604 0.500000
vt 0.693896 0.500000
vt 0.712354 0.500000
vt 0.412646 0.500000
vt 0.431104 0.500000
vt 0.131396 0.500000
vt 0.149854 0.500000
vt 0.818896 0.500000
vt 0.837354 0.500000
vt 0.537646 0.500000
vt 0.556104 0.500000
vt 0.274854 0.500000
vt 0.943896 0.500000
vt 0.962354 0.500000
vt 0.681104 0.500000
vt 0.381396 0.500000
vt 0.399854 0.500000
vt 0.100146 0.500000
vt 0.118604 0.500000
vt 0.787646 0.500000
vt 0.806104 0.500000
vt 0.524854 0.500000
vt 0.225146 0.500000
vt 0.243604 0.500000
vt 0.912646 0.500000
vt 0.931104 0.500000
vt 0.631396 0.500000
vt 0.649854 0.500000
vt 0.350146 0.500000
vt 0.368604 0.500000
vt 0.068896 0.500000
vt 0.087354 0.500000
vt 0.756396 0.500000
vt 0.774854 0.500000
vt 0.475146 0.500000
vt 0.493604 0.500000
vt 0.193896 0.500000
vt 0.212354 0.500000
vt 0.881396 0.500000
vt 0.899854 0.500000
vt 0.600146 0.500000
vt 0.618604 0.500000
vt 0.337354 0.500000
vt 0.037646 0.500000
vt 0.056104 0.500000
vt 0.341844 0.471731
vt 0.296822 0.485388
vt 0.250000 0.490000
vt 0.203179 0.485389
vt 0.158156 0.471731
vt 0.116663 0.449553
vt 0.080295 0.419706
vt 0.050447 0.383337
vt 0.014612 0.296822
vt 0.010000 0.250000
vt 0.014611 0.203179
vt 0.028269 0.158156
vt 0.050447 0.116663
vt 0.080294 0.080294
vt 0.116663 0.050447
vt 0.203178 0.014612
vt 0.250000 0.010000
vt 0.296822 0.014612
vt 0.341844 0.028269
vt 0.383337 0.050447
vt 0.419706 0.080294
vt 0.449553 0.116663
vt 0.485388 0.203178
vt 0.490000 0.250000
vt 0.485388 0.296822
vt 0.471731 0.341844
vt 0.449553 0.383337
vt 0.419706 0.419706
vt 0.383337 0.449553
vt 0.000000 1.000000
vt 0.725146 0.500000
vt 0.756396 0.500000
vt 0.693896 0.500000
vt 0.225146 0.500000
vt 0.100146 0.500000
vt 0.750000 0.391753
vt 0.777655 0.389029
vt 0.804247 0.380963
vt 0.828754 0.367863
vt 0.850235 0.350234
vt 0.867863 0.328754
vt 0.880963 0.304247
vt 0.889029 0.277655
vt 0.891753 0.250000
vt 0.889029 0.222345
vt 0.880963 0.195754
vt 0.867863 0.171246
vt 0.850235 0.149766
vt 0.828754 0.132137
vt 0.804246 0.119037
vt 0.750000 0.108247
vt 0.722345 0.110971
vt 0.695753 0.119037
vt 0.671246 0.132137
vt 0.649766 0.149766
vt 0.632137 0.171246
vt 0.619037 0.195754
vt 0.608247 0.250000
vt 0.610971 0.277655
vt 0.619037 0.304247
vt 0.632137 0.328754
vt 0.649766 0.350235
vt 0.671247 0.367863
vt 0.695754 0.380963
vt 0.443896 0.500000
vt 0.006396 0.500000
vt 0.850146 0.500000
vt 0.568896 0.500000
vt 0.287646 0.500000
vt 0.975146 0.500000
vt 0.412646 0.500000
vt 0.131396 0.500000
vt 0.818896 0.500000
vt 0.537646 0.500000
vt 0.256396 0.500000
vt 0.943896 0.500000
vt 0.662646 0.500000
vt 0.381396 0.500000
vt 0.787646 0.500000
vt 0.506396 0.500000
vt 0.912646 0.500000
vt 0.631396 0.500000
vt 0.350146 0.500000
vt 0.068896 0.500000
vt 0.193896 0.500000
vt 0.881396 0.500000
vt 0.600146 0.500000
vt 0.318896 0.500000
vt 0.037646 0.500000
vn 0.0980 0.0000 -0.9952
vn 0.2903 0.0000 -0.9569
vn 0.4714 0.0000 -0.8819
vn 0.6344 0.0000 -0.7730
vn 0.7730 0.0000 -0.6344
vn 0.8819 0.0000 -0.4714
vn 0.9569 0.0000 -0.2903
vn 0.9952 0.0000 -0.0980
vn 0.9952 0.0000 0.0980
vn 0.9569 0.0000 0.2903
vn 0.8819 0.0000 0.4714
vn 0.7730 0.0000 0.6344
vn 0.6344 0.0000 0.7730
vn 0.4714 0.0000 0.8819
vn 0.2903 0.0000 0.9569
vn 0.0980 0.0000 0.9952
vn -0.0980 0.0000 0.9952
vn -0.2903 0.0000 0.9569
vn -0.4714 0.0000 0.8819
vn -0.6344 0.0000 0.7730
vn -0.7730 0.0000 0.6344
vn -0.8819 0.0000 0.4714
vn -0.9569 0.0000 0.2903
vn -0.9952 0.0000 0.0980
vn -0.9952 0.0000 -0.0980
vn -0.9569 0.0000 -0.2903
vn -0.8819 0.0000 -0.4714
vn -0.7730 0.0000 -0.6344
vn -0.6344 0.0000 -0.7730
vn -0.4714 0.0000 -0.8819
vn 0.0000 1.0000 -0.0000
vn -0.2903 0.0000 -0.9569
vn -0.0980 0.0000 -0.9952
vn 0.0693 -0.7071 -0.7037
vn 0.2053 -0.7071 -0.6767
vn 0.3333 -0.7071 -0.6236
vn 0.4486 -0.7071 -0.5466
vn 0.5466 -0.7071 -0.4486
vn 0.6236 -0.7071 -0.3333
vn 0.6767 -0.7071 -0.2053
vn 0.7037 -0.7071 -0.0693
vn 0.7037 -0.7071 0.0693
vn 0.6767 -0.7071 0.2053
vn 0.6236 -0.7071 0.3333
vn 0.5466 -0.7071 0.4486
vn 0.4486 -0.7071 0.5466
vn 0.3333 -0.7071 0.6236
vn 0.2053 -0.7071 0.6767
vn 0.0693 -0.7071 0.7037
vn -0.0693 -0.7071 0.7037
vn -0.2053 -0.7071 0.6767
vn -0.3333 -0.7071 0.6236
vn -0.4486 -0.7071 0.5466
vn -0.5466 -0.7071 0.4486
vn -0.6236 -0.7071 0.3333
vn -0.6767 -0.7071 0.2052
vn -0.7037 -0.7071 0.0693
vn -0.7037 -0.7071 -0.0693
vn -0.6767 -0.7071 -0.2053
vn -0.6236 -0.7071 -0.3333
vn -0.5466 -0.7071 -0.4486
vn -0.4486 -0.7071 -0.5466
vn -0.3333 -0.7071 -0.6236
vn -0.2053 -0.7071 -0.6767
vn -0.0693 -0.7071 -0.7037
vn 0.0000 -1.0000 0.0000
vn 0.0000 1.0000 -0.0001
vn 0.0000 1.0000 0.0001
vn 0.0000 1.0000 0.0003
vn -0.6767 -0.7071 0.2053
vn 0.0000 -1.0000 -0.0001
vn 0.0000 -1.0000 0.0001
vn 0.0000 -1.0000 -0.0003
vn 0.0000 -1.0000 0.0004
vn 0.0000 -1.0000 -0.0002
vn 0.0000 -1.0000 0.0003
usemtl Material
s off
f 1/1/1 34/2/1 33/3/1
f 2/4/2 35/5/2 34/2/2
f 3/6/3 36/7/3 35/5/3
f 4/8/4 37/9/4 36/7/4
f 5/10/5 38/11/5 37/9/5
f 6/12/6 39/13/6 38/11/6
f 7/14/7 40/15/7 39/13/7
f 8/16/8 41/17/8 40/15/8
f 9/18/9 42/19/9 41/17/9
f 10/20/10 43/21/10 42/19/10
f 11/22/11 44/23/11 43/21/11
f 12/24/12 45/25/12 44/23/12
f 13/26/13 46/27/13 45/25/13
f 14/28/14 47/29/14 46/27/14
f 15/30/15 48/31/15 47/29/15
f 16/32/16 49/33/16 48/31/16
f 17/34/17 50/35/17 49/33/17
f 18/36/18 51/37/18 50/35/18
f 19/38/19 52/39/19 51/37/19
f 20/40/20 53/41/20 52/39/20
f 21/42/21 54/43/21 53/41/21
f 22/44/22 55/45/22 54/43/22
f 23/46/23 56/47/23 55/45/23
f 24/48/24 57/49/24 56/47/24
f 25/50/25 58/51/25 57/49/25
f 26/52/26 59/53/26 58/51/26
f 27/54/27 60/55/27 59/53/27
f 28/56/28 61/57/28 60/55/28
f 29/58/29 62/59/29 61/57/29
f 30/60/30 63/61/30 62/59/30
f 27/62/31 19/63/31 11/64/31
f 31/65/32 64/66/32 63/61/32
f 32/67/33 33/68/33 64/66/33
f 64/66/33 66/69/33 128/70/33
f 34/2/2 70/71/2 68/72/2
f 63/61/32 128/70/32 126/73/32
f 62/59/30 126/73/30 124/74/30
f 61/57/29 124/74/29 122/75/29
f 60/55/28 122/75/28 120/76/28
f 59/53/27 120/76/27 118/77/27
f 58/51/26 118/77/26 116/78/26
f 57/49/25 116/78/25 114/79/25
f 56/47/24 114/79/24 112/80/24
f 55/45/23 112/80/23 110/81/23
f 54/43/22 110/81/22 108/82/22
f 53/41/21 108/82/21 106/83/21
f 52/39/20 106/83/20 104/84/20
f 51/37/19 104/84/19 102/85/19
f 50/35/18 102/85/18 100/86/18
f 49/33/17 100/86/17 98/87/17
f 48/31/16 98/87/16 96/88/16
f 47/29/15 96/88/15 94/89/15
f 46/27/14 94/89/14 92/90/14
f 45/25/13 92/90/13 90/91/13
f 44/23/12 90/91/12 88/92/12
f 43/21/11 88/92/11 86/93/11
f 42/19/10 86/93/10 84/94/10
f 41/17/9 84/94/9 82/95/9
f 40/15/8 82/95/8 80/96/8
f 39/13/7 80/96/7 78/97/7
f 38/11/6 78/97/6 76/98/6
f 37/9/5 76/98/5 74/99/5
f 36/7/4 74/99/4 72/100/4
f 35/5/3 72/100/3 70/71/3
f 83/101/25 137/102/25 81/103/25
f 66/104/34 67/105/34 65/106/34
f 70/71/35 67/107/35 68/72/35
f 72/100/36 69/108/36 70/71/36
f 74/99/37 71/109/37 72/100/37
f 76/98/38 73/110/38 74/99/38
f 78/97/39 75/111/39 76/98/39
f 80/96/40 77/112/40 78/97/40
f 82/95/41 79/113/41 80/96/41
f 84/94/42 81/103/42 82/95/42
f 86/93/43 83/114/43 84/94/43
f 86/93/44 87/115/44 85/116/44
f 90/91/45 87/117/45 88/92/45
f 92/90/46 89/118/46 90/91/46
f 94/89/47 91/119/47 92/90/47
f 96/88/48 93/120/48 94/89/48
f 96/88/49 97/121/49 95/122/49
f 98/87/50 99/123/50 97/124/50
f 102/85/51 99/125/51 100/86/51
f 104/84/52 101/126/52 102/85/52
f 106/83/53 103/127/53 104/84/53
f 108/82/54 105/128/54 106/83/54
f 108/82/55 109/129/55 107/130/55
f 110/81/56 111/131/56 109/132/56
f 112/80/57 113/133/57 111/134/57
f 116/78/58 113/135/58 114/79/58
f 118/77/59 115/136/59 116/78/59
f 118/77/60 119/137/60 117/138/60
f 122/75/61 119/139/61 120/76/61
f 124/74/62 121/140/62 122/75/62
f 126/73/63 123/141/63 124/74/63
f 128/70/64 125/142/64 126/73/64
f 128/70/65 65/143/65 127/144/65
f 33/3/1 68/72/1 66/104/1
f 144/145/66 152/146/66 160/147/66
f 101/148/2 146/149/2 99/125/2
f 117/138/11 156/150/11 155/151/11
f 65/143/16 160/152/16 127/144/16
f 75/153/21 133/154/21 73/110/21
f 93/155/30 142/156/30 91/119/30
f 111/131/7 151/157/7 109/132/7
f 67/105/17 130/158/17 65/106/17
f 83/114/26 139/159/26 138/160/26
f 103/161/3 147/162/3 101/126/3
f 121/163/12 156/164/12 119/139/12
f 77/165/22 134/166/22 75/111/22
f 95/167/32 143/168/32 93/120/32
f 113/133/8 152/169/8 111/134/8
f 69/170/18 129/171/18 67/107/18
f 87/115/27 139/172/27 85/116/27
f 105/173/4 148/174/4 103/127/4
f 121/140/13 158/175/13 157/176/13
f 79/177/23 135/178/23 77/112/23
f 97/121/33 144/179/33 95/122/33
f 113/135/9 154/180/9 153/181/9
f 71/182/19 131/183/19 69/108/19
f 89/184/28 140/185/28 87/117/28
f 107/186/5 149/187/5 105/128/5
f 125/188/14 158/189/14 123/141/14
f 79/113/24 137/190/24 136/191/24
f 97/124/1 146/192/1 145/193/1
f 117/194/10 154/195/10 115/136/10
f 73/196/20 132/197/20 71/109/20
f 91/198/29 141/199/29 89/118/29
f 109/129/6 150/200/6 107/130/6
f 127/201/15 159/202/15 125/142/15
f 1/1/1 2/4/1 34/2/1
f 2/4/2 3/6/2 35/5/2
f 3/6/3 4/8/3 36/7/3
f 4/8/4 5/10/4 37/9/4
f 5/10/5 6/12/5 38/11/5
f 6/12/6 7/14/6 39/13/6
f 7/14/7 8/16/7 40/15/7
f 8/16/8 9/18/8 41/17/8
f 9/18/9 10/20/9 42/19/9
f 10/20/10 11/22/10 43/21/10
f 11/22/11 12/24/11 44/23/11
f 12/24/12 13/26/12 45/25/12
f 13/26/13 14/28/13 46/27/13
f 14/28/14 15/30/14 47/29/14
f 15/30/15 16/32/15 48/31/15
f 16/32/16 17/34/16 49/33/16
f 17/34/17 18/36/17 50/35/17
f 18/36/18 19/38/18 51/37/18
f 19/38/19 20/40/19 52/39/19
f 20/40/20 21/42/20 53/41/20
f 21/42/21 22/44/21 54/43/21
f 22/44/22 23/46/22 55/45/22
f 23/46/23 24/48/23 56/47/23
f 24/48/24 25/50/24 57/49/24
f 25/50/25 26/52/25 58/51/25
f 26/52/26 27/54/26 59/53/26
f 27/54/27 28/56/27 60/55/27
f 28/56/28 29/58/28 61/57/28
f 29/58/29 30/60/29 62/59/29
f 30/60/30 31/65/30 63/61/30
f 3/203/67 2/204/67 1/205/67
f 1/205/31 32/206/31 3/203/31
f 32/206/68 31/207/68 3/203/68
f 31/207/68 30/208/68 29/209/68
f 29/209/31 28/210/31 27/62/31
f 27/62/31 26/211/31 25/212/31
f 25/212/31 24/213/31 27/62/31
f 24/213/31 23/214/31 27/62/31
f 23/214/31 22/215/31 19/63/31
f 22/215/68 21/216/68 19/63/68
f 21/216/67 20/217/67 19/63/67
f 19/63/67 18/218/67 17/219/67
f 17/219/69 16/220/69 15/221/69
f 15/221/67 14/222/67 13/223/67
f 13/223/31 12/224/31 11/64/31
f 11/64/31 10/225/31 9/226/31
f 9/226/31 8/227/31 11/64/31
f 8/227/31 7/228/31 11/64/31
f 7/228/68 6/229/68 5/230/68
f 5/230/31 4/231/31 3/203/31
f 31/207/31 29/209/31 3/203/31
f 29/209/31 27/62/31 3/203/31
f 19/63/31 17/219/31 11/64/31
f 17/219/31 15/221/31 11/64/31
f 15/221/31 13/223/31 11/64/31
f 7/228/31 5/230/31 11/64/31
f 5/230/31 3/203/31 11/64/31
f 27/62/31 23/214/31 19/63/31
f 3/203/31 27/62/31 11/64/31
f 31/65/32 32/67/32 64/66/32
f 32/67/33 1/232/33 33/68/33
f 64/66/33 33/68/33 66/69/33
f 34/2/2 35/5/2 70/71/2
f 63/61/32 64/66/32 128/70/32
f 62/59/30 63/61/30 126/73/30
f 61/57/29 62/59/29 124/74/29
f 60/55/28 61/57/28 122/75/28
f 59/53/27 60/55/27 120/76/27
f 58/51/26 59/53/26 118/77/26
f 57/49/25 58/51/25 116/78/25
f 56/47/24 57/49/24 114/79/24
f 55/45/23 56/47/23 112/80/23
f 54/43/22 55/45/22 110/81/22
f 53/41/21 54/43/21 108/82/21
f 52/39/20 53/41/20 106/83/20
f 51/37/19 52/39/19 104/84/19
f 50/35/18 51/37/18 102/85/18
f 49/33/17 50/35/17 100/86/17
f 48/31/16 49/33/16 98/87/16
f 47/29/15 48/31/15 96/88/15
f 46/27/14 47/29/14 94/89/14
f 45/25/13 46/27/13 92/90/13
f 44/23/12 45/25/12 90/91/12
f 43/21/11 44/23/11 88/92/11
f 42/19/10 43/21/10 86/93/10
f 41/17/9 42/19/9 84/94/9
f 40/15/8 41/17/8 82/95/8
f 39/13/7 40/15/7 80/96/7
f 38/11/6 39/13/6 78/97/6
f 37/9/5 38/11/5 76/98/5
f 36/7/4 37/9/4 74/99/4
f 35/5/3 36/7/3 72/100/3
f 83/101/25 138/233/25 137/102/25
f 66/104/34 68/72/34 67/105/34
f 70/71/35 69/170/35 67/107/35
f 72/100/36 71/182/36 69/108/36
f 74/99/37 73/196/37 71/109/37
f 76/98/38 75/153/38 73/110/38
f 78/97/39 77/165/39 75/111/39
f 80/96/40 79/177/40 77/112/40
f 82/95/41 81/234/41 79/113/41
f 84/94/42 83/101/42 81/103/42
f 86/93/43 85/235/43 83/114/43
f 86/93/44 88/92/44 87/115/44
f 90/91/45 89/184/45 87/117/45
f 92/90/46 91/198/46 89/118/46
f 94/89/47 93/155/47 91/119/47
f 96/88/48 95/167/48 93/120/48
f 96/88/49 98/87/49 97/121/49
f 98/87/50 100/86/50 99/123/50
f 102/85/51 101/148/51 99/125/51
f 104/84/52 103/161/52 101/126/52
f 106/83/53 105/173/53 103/127/53
f 108/82/54 107/186/54 105/128/54
f 108/82/55 110/81/55 109/129/55
f 110/81/70 112/80/70 111/131/70
f 112/80/57 114/79/57 113/133/57
f 116/78/58 115/236/58 113/135/58
f 118/77/59 117/194/59 115/136/59
f 118/77/60 120/76/60 119/137/60
f 122/75/61 121/163/61 119/139/61
f 124/74/62 123/237/62 121/140/62
f 126/73/63 125/188/63 123/141/63
f 128/70/64 127/201/64 125/142/64
f 128/70/65 66/69/65 65/143/65
f 33/3/1 34/2/1 68/72/1
f 160/147/66 130/238/66 129/239/66
f 129/239/71 131/240/71 132/241/71
f 132/241/66 133/242/66 134/243/66
f 134/243/66 135/244/66 136/245/66
f 136/245/66 137/246/66 138/247/66
f 138/247/66 139/248/66 136/245/66
f 139/248/66 140/249/66 136/245/66
f 140/249/66 141/250/66 144/145/66
f 141/250/72 142/251/72 144/145/72
f 142/251/66 143/252/66 144/145/66
f 144/145/73 145/253/73 146/254/73
f 146/254/74 147/255/74 144/145/74
f 147/255/75 148/256/75 144/145/75
f 148/256/71 149/257/71 150/258/71
f 150/258/72 151/259/72 152/146/72
f 152/146/66 153/260/66 154/261/66
f 154/261/66 155/262/66 152/146/66
f 155/262/66 156/263/66 152/146/66
f 156/263/66 157/264/66 160/147/66
f 157/264/66 158/265/66 160/147/66
f 158/265/76 159/266/76 160/147/76
f 160/147/71 129/239/71 132/241/71
f 132/241/72 134/243/72 160/147/72
f 134/243/66 136/245/66 160/147/66
f 148/256/66 150/258/66 144/145/66
f 150/258/66 152/146/66 144/145/66
f 136/245/66 140/249/66 144/145/66
f 152/146/66 156/263/66 160/147/66
f 160/147/66 136/245/66 144/145/66
f 101/148/2 147/267/2 146/149/2
f 117/138/11 119/137/11 156/150/11
f 65/143/16 130/268/16 160/152/16
f 75/153/21 134/269/21 133/154/21
f 93/155/30 143/270/30 142/156/30
f 111/131/7 152/271/7 151/157/7
f 67/105/17 129/272/17 130/158/17
f 83/114/26 85/235/26 139/159/26
f 103/161/3 148/273/3 147/162/3
f 121/163/12 157/274/12 156/164/12
f 77/165/22 135/275/22 134/166/22
f 95/167/32 144/276/32 143/168/32
f 113/133/8 153/277/8 152/169/8
f 69/170/18 131/278/18 129/171/18
f 87/115/27 140/279/27 139/172/27
f 105/173/4 149/280/4 148/174/4
f 121/140/13 123/237/13 158/175/13
f 79/177/23 136/281/23 135/178/23
f 97/121/33 145/282/33 144/179/33
f 113/135/9 115/236/9 154/180/9
f 71/182/19 132/283/19 131/183/19
f 89/184/28 141/284/28 140/185/28
f 107/186/5 150/285/5 149/187/5
f 125/188/14 159/286/14 158/189/14
f 79/113/24 81/234/24 137/190/24
f 97/124/1 99/123/1 146/192/1
f 117/194/10 155/287/10 154/195/10
f 73/196/20 133/288/20 132/197/20
f 91/198/29 142/289/29 141/199/29
f 109/129/6 151/290/6 150/200/6
f 127/201/15 160/291/15 159/202/15
