# Blender v2.91.2 OBJ File: ''
# www.blender.org
mtllib painting.mtl
o Painting_with_frame.001_Cube.032
v -2.792343 0.053007 -3.236842
v -2.792343 0.053007 -4.091705
v -2.814911 0.000000 -3.214274
v -2.814911 -0.000000 -4.114274
v -2.037480 0.053007 -3.236842
v -2.037480 0.053007 -4.091705
v -2.014911 0.000000 -3.214274
v -2.014911 -0.000000 -4.114274
v -2.814911 0.053007 -3.214274
v -2.814911 0.053007 -4.114274
v -2.014911 0.053007 -4.114274
v -2.014911 0.053007 -3.214274
v -2.729891 0.044456 -3.299294
v -2.729891 0.044456 -4.029253
v -2.099932 0.044456 -4.029253
v -2.099932 0.044456 -3.299294
v -2.792343 0.044456 -3.236842
v -2.792343 0.044456 -4.091705
v -2.037480 0.044456 -4.091705
v -2.037480 0.044456 -3.236842
v -2.729891 0.039952 -3.299294
v -2.729891 0.039952 -4.029253
v -2.099932 0.039952 -4.029253
v -2.099932 0.039952 -3.299294
v -2.727806 0.039952 -3.301379
v -2.727806 0.039952 -4.027168
v -2.102017 0.039952 -4.027168
v -2.102017 0.039952 -3.301379
v -2.729891 0.039952 -3.299294
v -2.729891 0.039952 -4.029253
v -2.099932 0.039952 -4.029253
v -2.099932 0.039952 -3.299294
v -2.712123 0.043722 -3.317062
v -2.712123 0.043722 -4.011485
v -2.117700 0.043722 -4.011485
v -2.117700 0.043722 -3.317062
v -2.727806 0.043722 -3.301379
v -2.727806 0.043722 -4.027168
v -2.102017 0.043722 -4.027168
v -2.102017 0.043722 -3.301379
v -2.712123 0.034558 -3.317062
v -2.712123 0.034558 -4.011485
v -2.117700 0.034558 -4.011485
v -2.117700 0.034558 -3.317062
vt 0.625000 0.000000
vt 0.375000 0.250000
vt 0.375000 0.000000
vt 0.625000 0.250000
vt 0.375000 0.500000
vt 0.884432 0.525477
vt 0.923513 0.920684
vt 0.884432 0.920684
vt 0.375032 0.549035
vt 0.381336 0.880509
vt 0.375032 0.880509
vt 0.962593 0.876772
vt 0.923513 0.525478
vt 0.962593 0.525478
vt 0.875000 0.500000
vt 0.625000 0.750000
vt 0.625000 0.500000
vt 0.482249 0.091094
vt 0.496249 0.549035
vt 0.482249 0.537256
vt 0.013999 0.537256
vt 0.000000 0.079316
vt 0.013999 0.091094
vt 0.000000 0.549035
vt 0.496249 0.079316
vt 0.404925 0.549035
vt 0.408246 0.825661
vt 0.404925 0.825661
vt 0.970803 0.454702
vt 0.964499 0.079316
vt 0.970803 0.079316
vt 0.368727 0.549035
vt 0.375032 0.880509
vt 0.368727 0.880509
vt 0.970803 0.830089
vt 0.964499 0.454702
vt 0.970803 0.454702
vt 0.925759 0.492883
vt 0.964499 0.079316
vt 0.964499 0.525477
vt 0.534989 0.111910
vt 0.496249 0.525477
vt 0.496249 0.079316
vt 0.534989 0.492883
vt 0.925759 0.111910
vt nan nan
vt nan nan
vt nan nan
vt 0.601383 0.776569
vt 0.398617 0.776569
vt 0.398617 0.776569
vt 0.398617 0.973431
vt 0.398617 0.973431
vt 0.404925 0.869573
vt 0.401604 0.549035
vt 0.398617 0.776569
vt 0.398617 0.973431
vt nan nan
vt nan nan
vt nan nan
vt 0.601383 0.776569
vt 0.601383 0.973431
vt 0.601383 0.776569
vt 0.600804 0.972780
vt 0.399196 0.972780
vt 0.399196 0.777220
vt 0.600804 0.777221
vt 0.923513 0.525477
vt 0.381336 0.549035
vt 0.923513 0.876772
vt 0.875000 0.750000
vt 0.408246 0.549035
vt 0.964499 0.454702
vt 0.375032 0.549035
vt 0.964499 0.830089
vt nan nan
vt nan nan
vt nan nan
vt 0.401604 0.869573
vt nan nan
vt nan nan
vt nan nan
vt 0.601383 0.973431
vt 0.413806 0.823830
vt 0.411026 0.549035
vt 0.413806 0.549035
vt 0.403552 0.782121
vt 0.403552 0.967879
vt 0.403552 0.967879
vt 0.600804 0.972780
vt 0.600804 0.777221
vt 0.408246 0.549035
vt 0.411026 0.867742
vt 0.408246 0.867742
vt 0.874704 0.896089
vt 0.884432 0.525477
vt 0.884433 0.904274
vt 0.505977 0.533663
vt 0.496249 0.904274
vt 0.496249 0.525478
vt 0.505977 0.896089
vt 0.874704 0.533663
vt 0.394848 0.853969
vt 0.388092 0.549035
vt 0.394848 0.549035
vt 0.401604 0.810057
vt 0.394848 0.810057
vt 0.388092 0.853969
vt 0.381336 0.549035
vt 0.388092 0.549035
vt 0.411026 0.823830
vt 0.403552 0.782121
vt 0.399196 0.972780
vt 0.411026 0.549035
vt 0.388092 0.853969
vt 0.401604 0.549035
vt 0.381336 0.853969
vt 0.000000 0.549035
vt 0.368727 0.911461
vt 0.000000 0.911461
vt 0.368727 0.549035
vn -1.0000 0.0000 -0.0000
vn 0.0000 -1.0000 0.0000
vn 1.0000 0.0000 0.0000
vn 0.0000 0.0000 1.0000
vn 0.0000 0.0000 -1.0000
vn -0.0000 1.0000 -0.0000
usemtl PORTA_TINTA.001
s off
f 10/1/1 3/2/1 9/3/1
f 4/4/2 7/5/2 3/2/2
f 8/6/3 12/7/3 7/8/3
f 2/9/4 19/10/4 6/11/4
f 7/12/4 9/13/4 3/14/4
f 4/15/5 11/16/5 8/17/5
f 2/18/6 9/19/6 1/20/6
f 5/21/6 11/22/6 6/23/6
f 5/21/6 9/19/6 12/24/6
f 2/18/6 11/22/6 10/25/6
f 14/26/4 23/27/4 15/28/4
f 6/29/1 20/30/1 5/31/1
f 5/32/5 17/33/5 1/34/5
f 1/35/3 18/36/3 2/37/3
f 13/38/6 18/39/6 17/40/6
f 15/41/6 20/42/6 19/43/6
f 13/38/6 20/42/6 16/44/6
f 15/41/6 18/39/6 14/45/6
f 24/46/4 31/47/4 32/48/4
f 15/49/1 24/50/1 16/51/1
f 16/51/5 21/52/5 13/53/5
f 13/54/3 22/55/3 14/26/3
f 21/52/4 32/56/4 29/57/4
f 22/58/4 29/59/4 30/60/4
f 23/61/4 30/62/4 31/63/4
f 26/64/6 29/57/6 25/65/6
f 28/66/6 31/63/6 27/67/6
f 28/66/6 29/57/6 32/56/6
f 26/64/6 31/63/6 30/62/6
f 10/1/1 4/4/1 3/2/1
f 4/4/2 8/17/2 7/5/2
f 8/6/3 11/68/3 12/7/3
f 2/9/4 18/69/4 19/10/4
f 7/12/4 12/70/4 9/13/4
f 4/15/5 10/71/5 11/16/5
f 2/18/6 10/25/6 9/19/6
f 5/21/6 12/24/6 11/22/6
f 5/21/6 1/20/6 9/19/6
f 2/18/6 6/23/6 11/22/6
f 14/26/4 22/72/4 23/27/4
f 6/29/1 19/73/1 20/30/1
f 5/32/5 20/74/5 17/33/5
f 1/35/3 17/75/3 18/36/3
f 13/38/6 14/45/6 18/39/6
f 15/41/6 16/44/6 20/42/6
f 13/38/6 17/40/6 20/42/6
f 15/41/6 19/43/6 18/39/6
f 24/76/4 23/77/4 31/78/4
f 15/49/1 23/61/1 24/50/1
f 16/51/5 24/50/5 21/52/5
f 13/54/3 21/79/3 22/55/3
f 21/52/4 24/50/4 32/56/4
f 22/80/4 21/81/4 29/82/4
f 23/61/4 22/83/4 30/62/4
f 26/64/6 30/62/6 29/57/6
f 28/66/6 32/56/6 31/63/6
f 28/66/6 25/65/6 29/57/6
f 26/64/6 27/67/6 31/63/6
usemtl Material.001
f 28/84/4 37/85/4 25/86/4
f 36/87/5 41/88/5 33/89/5
f 25/65/1 38/90/1 26/64/1
f 26/64/5 39/91/5 27/67/5
f 27/92/3 40/93/3 28/94/3
f 33/95/6 38/96/6 37/97/6
f 35/98/6 40/99/6 39/100/6
f 36/101/6 37/97/6 40/99/6
f 34/102/6 39/100/6 38/96/6
f 33/103/3 42/104/3 34/105/3
f 34/105/4 43/106/4 35/107/4
f 35/108/1 44/109/1 36/110/1
f 28/84/4 40/111/4 37/85/4
f 36/87/5 44/112/5 41/88/5
f 25/65/1 37/113/1 38/90/1
f 26/64/5 38/90/5 39/91/5
f 27/92/3 39/114/3 40/93/3
f 33/95/6 34/102/6 38/96/6
f 35/98/6 36/101/6 40/99/6
f 36/101/6 33/95/6 37/97/6
f 34/102/6 35/98/6 39/100/6
f 33/103/3 41/115/3 42/104/3
f 34/105/4 42/116/4 43/106/4
f 35/108/1 43/117/1 44/109/1
usemtl quadro2_figura
f 43/118/6 41/119/6 44/120/6
f 43/118/6 42/121/6 41/119/6
