# Blender v2.91.2 OBJ File: 'salon test.blend'
# www.blender.org
mtllib woodparvis.mtl
o Cube.002
v 3.004284 0.879733 0.984685
v 3.004284 2.179733 0.984685
v 3.004284 0.879733 -1.015315
v 3.004284 2.179733 -1.015315
v 3.560461 0.879733 0.984685
v 3.560461 2.179733 0.984685
v 3.560461 0.879733 -1.015315
v 3.560461 2.179733 -1.015315
vt 0.625000 0.250000
vt 0.375000 0.500000
vt 0.375000 0.250000
vt 0.625000 0.750000
vt 0.375000 1.000000
vt 0.375000 0.750000
vt 0.125000 0.750000
vt 0.125000 0.500000
vt 0.875000 0.500000
vt 0.625000 0.500000
vt 0.625000 1.000000
vt 0.875000 0.750000
vn 0.0000 0.0000 -1.0000
vn 0.0000 0.0000 1.0000
vn 0.0000 -1.0000 0.0000
vn 0.0000 1.0000 0.0000
usemtl None
s off
f 4/1/1 7/2/1 3/3/1
f 6/4/2 1/5/2 5/6/2
f 7/2/3 1/7/3 3/8/3
f 4/9/4 6/4/4 8/10/4
f 4/1/1 8/10/1 7/2/1
f 6/4/2 2/11/2 1/5/2
f 7/2/3 5/6/3 1/7/3
f 4/9/4 2/12/4 6/4/4
